<?xml version="1.0" encoding="UTF-8" standalone="no"?>
<!-- Created with Inkscape (http://www.inkscape.org/) -->

<svg
   xmlns:dc="http://purl.org/dc/elements/1.1/"
   xmlns:cc="http://creativecommons.org/ns#"
   xmlns:rdf="http://www.w3.org/1999/02/22-rdf-syntax-ns#"
   xmlns:svg="http://www.w3.org/2000/svg"
   xmlns="http://www.w3.org/2000/svg"
   xmlns:sodipodi="http://sodipodi.sourceforge.net/DTD/sodipodi-0.dtd"
   xmlns:inkscape="http://www.inkscape.org/namespaces/inkscape"
   version="1.1"
   width="100%"
   height="100%"
   viewBox="0 0 24 24"
   id="svg2"
   xml:space="preserve"
   inkscape:version="0.48.5 r10040"
   sodipodi:docname="canoe.svg"><sodipodi:namedview
   pagecolor="#ffffff"
   bordercolor="#666666"
   borderopacity="1"
   objecttolerance="10"
   gridtolerance="10"
   guidetolerance="10"
   inkscape:pageopacity="0"
   inkscape:pageshadow="2"
   inkscape:window-width="1680"
   inkscape:window-height="1023"
   id="namedview18"
   showgrid="false"
   inkscape:zoom="19.666667"
   inkscape:cx="3.6545786"
   inkscape:cy="11.117995"
   inkscape:window-x="-9"
   inkscape:window-y="-9"
   inkscape:window-maximized="1"
   inkscape:current-layer="svg2" /><metadata
   id="metadata27"><rdf:RDF><cc:Work
       rdf:about=""><dc:format>image/svg+xml</dc:format><dc:type
         rdf:resource="http://purl.org/dc/dcmitype/StillImage" /><dc:title /></cc:Work></rdf:RDF></metadata><defs
   id="defs25" />

<rect
   style="fill:#2da2ff;fill-opacity:1;stroke:#ffffff;stroke-width:1.36400000000000010;stroke-linecap:round;stroke-linejoin:round;stroke-miterlimit:4;stroke-opacity:1;stroke-dasharray:none;stroke-dashoffset:0"
   id="rect3004"
   y="0.69781315"
   x="0.72874421"
   height="22.636408"
   width="22.63641" /><g
   id="shadows"
   transform="translate(-0.69575737,0.07730637)">
	<g
   style="opacity:0.2"
   id="g5">
		<path
   inkscape:connector-curvature="0"
   id="path7"
   d="m 7.3,16.8 1.5,0.8 h 0.8 l 1.5,-0.8 H 12 l 1.5,0.8 h 0.8 l 1.5,-0.8 h 0.8 l 1.5,0.8 h 0.8 l 1.5,-0.8 h 0.2 c 0.1,-0.1 0.1,-0.1 0.2,-0.1 0.5,-0.5 0.8,-1.2 0.8,-1.9 0,-1.6 -1.3,-2.9 -2.9,-2.9 l -0.3,0 c -0.4,1.4 -1.8,1.5 -1.8,1.5 l -6.6,0 -0.5,-0.4 1.3,-2.2 1.4,0.8 c 0.9,0.6 1.3,-0.2 1.3,-0.2 L 15,9.1 C 15.6,8.1 14.3,7.2 13.7,8.3 L 12.7,10 10.3,8.7 C 8.6,7.6 7.9,9.2 7.9,9.2 L 6,12.4 c -0.3,0.7 0,1 0,1 l -0.9,0 v 4.1 l 1.5,-0.8 h 0.7 z" />
		<polygon
   id="polygon9"
   points="16.6,18.3 15.8,18.3 14.3,19.1 13.5,19.1 12,18.3 11.2,18.3 9.6,19.1 8.9,19.1 7.3,18.3 6.5,18.3 5,19.1 5,20.6 6.5,19.8 7.3,19.8 8.9,20.6 9.6,20.6 11.2,19.8 12,19.8 13.5,20.6 14.3,20.6 15.8,19.8 16.6,19.8 18.1,20.6 18.9,20.6 20.5,19.8 21.2,19.8 22,20.2 22,18.7 21.2,18.3 20.5,18.3 18.9,19.1 18.1,19.1 " />
		<circle
   sodipodi:ry="1.5"
   sodipodi:rx="1.5"
   sodipodi:cy="5.9000001"
   sodipodi:cx="11.2"
   d="m 12.7,5.9000001 c 0,0.8284271 -0.671573,1.5 -1.5,1.5 -0.828427,0 -1.5000002,-0.6715729 -1.5000002,-1.5 0,-0.8284271 0.6715732,-1.5 1.5000002,-1.5 0.828427,0 1.5,0.6715729 1.5,1.5 z"
   id="circle11"
   r="1.5"
   cy="5.9000001"
   cx="11.2" />
	</g>
</g><g
   style="fill:#ffffff;fill-opacity:1"
   id="icons"
   transform="translate(-0.38653187,0.23191912)">
	<g
   style="fill:#ffffff;fill-opacity:1"
   id="g14">
		<path
   inkscape:connector-curvature="0"
   style="fill:#ffffff;fill-opacity:1"
   id="path16"
   d="m 6.3,15.8 1.5,0.8 h 0.8 l 1.5,-0.8 H 11 l 1.5,0.8 h 0.8 l 1.5,-0.8 h 0.8 l 1.5,0.8 h 0.8 l 1.5,-0.8 h 0.2 c 0.1,-0.1 0.1,-0.1 0.2,-0.1 0.5,-0.5 0.8,-1.2 0.8,-1.9 0,-1.6 -1.3,-2.9 -2.9,-2.9 l -0.3,0 c -0.4,1.4 -1.8,1.5 -1.8,1.5 L 9,12.4 8.5,12 9.8,9.8 l 1.4,0.8 c 0.9,0.6 1.3,-0.2 1.3,-0.2 L 14,8.1 C 14.6,7.1 13.3,6.2 12.7,7.3 L 11.7,9 9.3,7.6 C 7.6,6.6 6.9,8.2 6.9,8.2 L 5,11.4 c -0.3,0.7 0,1 0,1 l -0.9,0 v 4.1 l 1.5,-0.8 h 0.7 z" />
		<polygon
   style="fill:#ffffff;fill-opacity:1"
   id="polygon18"
   points="14.8,17.3 13.3,18.1 12.5,18.1 11,17.3 10.2,17.3 8.6,18.1 7.9,18.1 6.3,17.3 5.5,17.3 4,18.1 4,19.6 5.5,18.8 6.3,18.8 7.9,19.6 8.6,19.6 10.2,18.8 11,18.8 12.5,19.6 13.3,19.6 14.8,18.8 15.6,18.8 17.1,19.6 17.9,19.6 19.5,18.8 20.2,18.8 21,19.2 21,17.7 20.2,17.3 19.5,17.3 17.9,18.1 17.1,18.1 15.6,17.3 " />
		<circle
   sodipodi:ry="1.5"
   sodipodi:rx="1.5"
   sodipodi:cy="4.9000001"
   sodipodi:cx="10.2"
   d="m 11.7,4.9000001 c 0,0.8284271 -0.671573,1.5 -1.5,1.5 -0.8284273,0 -1.5000002,-0.6715729 -1.5000002,-1.5 0,-0.8284271 0.6715729,-1.5 1.5000002,-1.5 0.828427,0 1.5,0.6715729 1.5,1.5 z"
   style="fill:#ffffff;fill-opacity:1"
   id="circle20"
   r="1.5"
   cy="4.9000001"
   cx="10.2" />
	</g>
</g>
<g
   id="guides">
</g>
</svg>