<?xml version="1.0" encoding="UTF-8" standalone="no"?>
<svg
   xmlns:dc="http://purl.org/dc/elements/1.1/"
   xmlns:cc="http://creativecommons.org/ns#"
   xmlns:rdf="http://www.w3.org/1999/02/22-rdf-syntax-ns#"
   xmlns:svg="http://www.w3.org/2000/svg"
   xmlns="http://www.w3.org/2000/svg"
   height="12.101562"
   width="12.050781"
   id="svg2"
   xml:space="preserve"
   enable-background="new 0 0 12 12"
   viewBox="0 0 12.050781 12.101562"
   y="0px"
   x="0px"
   version="1.1"><metadata
     id="metadata35"><rdf:RDF><cc:Work
         rdf:about=""><dc:format>image/svg+xml</dc:format><dc:type
           rdf:resource="http://purl.org/dc/dcmitype/StillImage" /><dc:title></dc:title></cc:Work></rdf:RDF></metadata><defs
     id="defs33" /><path
     id="path4138"
     d="M 6.0150421,2.2520112 C 4.4633412,2.2522195 2.91164,2.2524277 1.3599389,2.2526362 1.2310761,2.2927115 1.1859072,2.4450486 1.0989256,2.5394285 0.72142056,3.0735403 0.42192525,3.6663353 0.2368742,4.2937792 c 8.08e-5,0.1481473 0.17795928,0.1185062 0.27720966,0.1257074 0.21618925,0.00505 0.4324601,0.00239 0.64868694,0.00309 0,1.7263294 0,3.452659 0,5.1789886 0.061039,0.1507436 0.1968266,0.2609939 0.2948622,0.3900742 0.3660661,0.4143456 0.7823128,0.7871946 1.2472891,1.0876476 0.1102335,0.04283 0.1675602,-0.08384 0.1469362,-0.175389 0.010504,-1.2550421 0.00482,-2.5101525 0.00634,-3.7652258 0.339196,-0.3483101 0.678392,-0.6966199 1.017588,-1.0449301 1.4105202,0 2.8210407,0 4.2315607,0 0.3229776,0.3653114 0.6459401,0.7306361 0.9688879,1.0959732 0,1.2920217 0,2.5840431 0,3.8760647 0.010694,0.117456 0.151517,0.113083 0.2169719,0.04208 0.5521949,-0.361635 1.0551702,-0.8051 1.4590962,-1.3277493 0.04363,-0.1973414 0.0075,-0.4074146 0.01935,-0.6098462 0,-1.5825634 0,-3.1651266 0,-4.7476899 0.317042,-0.00397 0.636726,0.00783 0.952148,-0.00578 0.144401,-0.043346 0.04922,-0.2133847 0.02322,-0.3123843 C 11.50977,3.4528241 11.184808,2.8286489 10.74711,2.2880206 10.632279,2.2118466 10.480135,2.2691246 10.349293,2.2514296 8.9045427,2.2516237 7.4597919,2.2518176 6.0150408,2.2520117 Z m -2.6033223,2.170557 c 0.1394172,0 0.2788341,0 0.4182513,0 C 3.5062579,4.7552444 3.1825378,5.0879085 2.8596559,5.4213855 2.8592261,5.0884464 2.8587801,4.7555072 2.8583345,4.4225682 c 0.1844622,0 0.3689245,0 0.5533867,0 z m 2.6517789,0 c 0.1879667,0 0.375933,0 0.5638996,0 0.1353285,0.1534237 0.2707859,0.3067336 0.4062764,0.460015 -0.6595595,0 -1.3191189,0 -1.9786783,0 0.1473486,-0.1533433 0.2947065,-0.3066781 0.4420617,-0.460015 0.1888136,0 0.3776271,0 0.5664406,0 z m 2.8463365,0.00267 c 0.06664,0.011974 0.2006238,-0.042207 0.1634491,0.073926 0.00103,0.293303 -0.00226,0.5865971 -0.00412,0.8798904 C 8.7893572,5.0625886 8.5095351,4.746133 8.2297027,4.4296865 c 0.2267093,-0.00168 0.4534148,-0.00426 0.6801325,-0.00444 z"
     style="opacity:1;fill:#ffffff;fill-opacity:1;stroke:none;stroke-width:0.004;stroke-linecap:round;stroke-linejoin:round;stroke-miterlimit:4;stroke-dasharray:none;stroke-dashoffset:0;stroke-opacity:1" /><path
     id="rect4163"
     d="m 6.0241523,-0.0273094 c -1.9353761,0 -3.647095,0.90662093 -4.7480468,2.3164062 l 9.4960945,0 C 9.6712474,0.87931153 7.9595285,-0.0273094 6.0241523,-0.0273094 Z M 0.24680858,4.2890968 C 0.08761671,4.8311556 -0.0012383,5.4031525 -0.0012383,5.9980812 l 0,0.050781 c 0,1.3726642 0.4593387,2.6316053 1.2265625,3.6425784 l 0,-5.4023438 -0.97851562,0 z m 2.47851562,0 0,1.3730469 1.3300781,-1.3730469 -1.3300781,0 z m 2.7265625,0 -0.65625,0.6757813 2.4882812,0 -0.5957031,-0.6757813 -1.2363281,0 z m 2.5703125,0 1.1855469,1.34375 0,-1.34375 -1.1855469,0 z m 2.6855468,0 0,5.5566407 c 0.83867,-1.0349141 1.341797,-2.3549952 1.341797,-3.796875 l 0,-0.050781 c 0,-0.5949287 -0.08886,-1.1669256 -0.248047,-1.7089844 l -1.09375,0 z m -6.8808593,1.6757813 -1.1015625,1.1347656 0,3.9941413 c 0.9470038,0.619042 2.0782445,0.980468 3.2988281,0.980468 1.1720392,0 2.2601547,-0.335723 3.1835938,-0.910156 l 0,-4.0214845 -1.0390625,-1.1777344 -4.3417969,0 z"
     style="opacity:1;fill:#23865c;fill-opacity:1;stroke:none;stroke-width:1;stroke-linecap:butt;stroke-linejoin:round;stroke-miterlimit:4;stroke-dasharray:none;stroke-dashoffset:0;stroke-opacity:1" /><g
     id="guides" /></svg>