<?xml version="1.0" encoding="UTF-8" standalone="no"?>
<svg
   xmlns:dc="http://purl.org/dc/elements/1.1/"
   xmlns:cc="http://creativecommons.org/ns#"
   xmlns:rdf="http://www.w3.org/1999/02/22-rdf-syntax-ns#"
   xmlns:svg="http://www.w3.org/2000/svg"
   xmlns="http://www.w3.org/2000/svg"
   id="svg2"
   xml:space="preserve"
   enable-background="new 0 0 12 12"
   viewBox="0 0 12 12"
   y="0px"
   x="0px"
   version="1.1"><metadata
     id="metadata27"><rdf:RDF><cc:Work
         rdf:about=""><dc:format>image/svg+xml</dc:format><dc:type
           rdf:resource="http://purl.org/dc/dcmitype/StillImage" /><dc:title></dc:title></cc:Work></rdf:RDF></metadata><defs
     id="defs25" /><rect
     ry="1.7926897"
     y="0"
     x="-0.050847456"
     height="12.050847"
     width="12.152542"
     id="rect4155"
     style="opacity:1;fill:#00b9f2;fill-opacity:1;stroke:none;stroke-width:1;stroke-linecap:butt;stroke-linejoin:round;stroke-miterlimit:4;stroke-dasharray:none;stroke-dashoffset:0;stroke-opacity:1" /><g
     transform="translate(0.50847458,0.05084746)"
     id="shadows"><g
       style="opacity:0.2"
       id="g5"><path
         id="path7"
         d="M 10.5,9.2 9.9,9.5 9.2,9.5 7.9,8.9 7.3,8.9 6,9.5 5.4,9.5 4.1,8.9 l -0.7,0 -1.3,0.6 -0.6,0 0,0.6 0.6,0 1.3,-0.6 0.6,0 1.3,0.6 0.7,0 1.3,-0.6 0.6,0 1.3,0.6 0.6,0 0.6,-0.3 c 0,-0.1 0,-0.2 0,-0.3 0,-0.1 0.1,-0.2 0.1,-0.3 z" /><rect
         id="rect9"
         height="1.3"
         width="1.3"
         y="1.8"
         x="4.0999999" /><polygon
         id="polygon11"
         points="3.5,7.6 4.1,7.6 5.4,8.3 6.1,8.3 7.3,7.6 8,7.6 9.3,8.3 9.9,8.3 10.5,7 9.2,5.7 8.6,5.4 8.6,6.3 4.1,6.3 4.1,5.7 6,5.7 7.3,5 7.3,3.7 6.3,4.1 6,4.7 5,4.7 4.1,3.7 3.4,3.7 1.5,6.3 1.5,8.3 2.2,8.3 " /></g></g><g
     transform="translate(0.50847458,0.05084746)"
     id="icons"><g
       id="g14"><path
         style="fill:#ffffff"
         id="path16"
         d="M 10,8.7 9.4,9 8.7,9 7.4,8.4 6.8,8.4 5.5,9 4.9,9 3.6,8.4 2.9,8.4 1.6,9 1,9 1,9.6 1.6,9.6 2.9,9 3.5,9 4.8,9.6 5.4,9.6 6.8,9 7.4,9 8.7,9.6 9.3,9.6 10,9.4 C 10,9.3 10,9.2 10,9.1 10,9 10,8.8 10,8.7 Z" /><rect
         style="fill:#ffffff"
         id="rect18"
         height="1.3"
         width="1.3"
         y="1.3"
         x="3.5999999" /><polygon
         style="fill:#ffffff"
         id="polygon20"
         points="3,7.1 3.6,7.1 4.9,7.8 5.6,7.8 6.8,7.1 7.5,7.1 8.8,7.8 9.4,7.8 10,6.5 8.7,5.2 8.1,4.9 8.1,5.8 3.6,5.8 3.6,5.2 5.5,5.2 6.8,4.5 6.8,3.2 5.8,3.6 5.5,4.2 4.5,4.2 3.6,3.2 2.9,3.2 1,5.8 1,7.8 1.7,7.8 " /></g></g><g
     id="guides" /></svg>