<?xml version="1.0" encoding="UTF-8" standalone="no"?>
<!-- Generator: Adobe Illustrator 18.1.1, SVG Export Plug-In . SVG Version: 6.00 Build 0)  -->

<svg
   xmlns:dc="http://purl.org/dc/elements/1.1/"
   xmlns:cc="http://creativecommons.org/ns#"
   xmlns:rdf="http://www.w3.org/1999/02/22-rdf-syntax-ns#"
   xmlns:svg="http://www.w3.org/2000/svg"
   xmlns="http://www.w3.org/2000/svg"
   xmlns:sodipodi="http://sodipodi.sourceforge.net/DTD/sodipodi-0.dtd"
   xmlns:inkscape="http://www.inkscape.org/namespaces/inkscape"
   version="1.1"
   x="0px"
   y="0px"
   viewBox="0 0 12 12"
   enable-background="new 0 0 12 12"
   xml:space="preserve"
   id="svg2"
   inkscape:version="0.91 r13725"
   sodipodi:docname="canoe.svg"><metadata
     id="metadata27"><rdf:RDF><cc:Work
         rdf:about=""><dc:format>image/svg+xml</dc:format><dc:type
           rdf:resource="http://purl.org/dc/dcmitype/StillImage" /></cc:Work></rdf:RDF></metadata><defs
     id="defs25" /><sodipodi:namedview
     pagecolor="#ffffff"
     bordercolor="#666666"
     borderopacity="1"
     objecttolerance="10"
     gridtolerance="10"
     guidetolerance="10"
     inkscape:pageopacity="0"
     inkscape:pageshadow="2"
     inkscape:window-width="1680"
     inkscape:window-height="1023"
     id="namedview23"
     showgrid="false"
     inkscape:zoom="19.666667"
     inkscape:cx="-2.4915253"
     inkscape:cy="6.0000001"
     inkscape:window-x="-9"
     inkscape:window-y="-9"
     inkscape:window-maximized="1"
     inkscape:current-layer="svg2" /><rect
     style="opacity:1;fill:#00b9f2;fill-opacity:1;stroke:none;stroke-width:1;stroke-linecap:butt;stroke-linejoin:round;stroke-miterlimit:4;stroke-dasharray:none;stroke-dashoffset:0;stroke-opacity:1"
     id="rect4155"
     width="12.152542"
     height="12.050847"
     x="-0.050847456"
     y="0"
     ry="1.7926897" /><g
     id="shadows"
     transform="translate(0.50847458,0.05084746)"><g
       id="g5"
       style="opacity:0.2"><path
         d="M 10.5,9.2 9.9,9.5 9.2,9.5 7.9,8.9 7.3,8.9 6,9.5 5.4,9.5 4.1,8.9 l -0.7,0 -1.3,0.6 -0.6,0 0,0.6 0.6,0 1.3,-0.6 0.6,0 1.3,0.6 0.7,0 1.3,-0.6 0.6,0 1.3,0.6 0.6,0 0.6,-0.3 c 0,-0.1 0,-0.2 0,-0.3 0,-0.1 0.1,-0.2 0.1,-0.3 z"
         id="path7"
         inkscape:connector-curvature="0" /><rect
         x="4.0999999"
         y="1.8"
         width="1.3"
         height="1.3"
         id="rect9" /><polygon
         points="3.5,7.6 4.1,7.6 5.4,8.3 6.1,8.3 7.3,7.6 8,7.6 9.3,8.3 9.9,8.3 10.5,7 9.2,5.7 8.6,5.4 8.6,6.3 4.1,6.3 4.1,5.7 6,5.7 7.3,5 7.3,3.7 6.3,4.1 6,4.7 5,4.7 4.1,3.7 3.4,3.7 1.5,6.3 1.5,8.3 2.2,8.3 "
         id="polygon11" /></g></g><g
     id="icons"
     transform="translate(0.50847458,0.05084746)"><g
       id="g14"><path
         d="M 10,8.7 9.4,9 8.7,9 7.4,8.4 6.8,8.4 5.5,9 4.9,9 3.6,8.4 2.9,8.4 1.6,9 1,9 1,9.6 1.6,9.6 2.9,9 3.5,9 4.8,9.6 5.4,9.6 6.8,9 7.4,9 8.7,9.6 9.3,9.6 10,9.4 C 10,9.3 10,9.2 10,9.1 10,9 10,8.8 10,8.7 Z"
         id="path16"
         inkscape:connector-curvature="0"
         style="fill:#ffffff" /><rect
         x="3.5999999"
         y="1.3"
         width="1.3"
         height="1.3"
         id="rect18"
         style="fill:#ffffff" /><polygon
         points="3,7.1 3.6,7.1 4.9,7.8 5.6,7.8 6.8,7.1 7.5,7.1 8.8,7.8 9.4,7.8 10,6.5 8.7,5.2 8.1,4.9 8.1,5.8 3.6,5.8 3.6,5.2 5.5,5.2 6.8,4.5 6.8,3.2 5.8,3.6 5.5,4.2 4.5,4.2 3.6,3.2 2.9,3.2 1,5.8 1,7.8 1.7,7.8 "
         id="polygon20"
         style="fill:#ffffff" /></g></g><g
     id="guides" /></svg>