<?xml version="1.0" encoding="UTF-8" standalone="no"?>
<svg
   xmlns:dc="http://purl.org/dc/elements/1.1/"
   xmlns:cc="http://creativecommons.org/ns#"
   xmlns:rdf="http://www.w3.org/1999/02/22-rdf-syntax-ns#"
   xmlns:svg="http://www.w3.org/2000/svg"
   xmlns="http://www.w3.org/2000/svg"
   height="12.050847"
   width="12.152542"
   id="svg2"
   xml:space="preserve"
   enable-background="new 0 0 12 12"
   viewBox="0 0 12.152542 12.050847"
   y="0px"
   x="0px"
   version="1.1"><metadata
     id="metadata27"><rdf:RDF><cc:Work
         rdf:about=""><dc:format>image/svg+xml</dc:format><dc:type
           rdf:resource="http://purl.org/dc/dcmitype/StillImage" /><dc:title></dc:title></cc:Work></rdf:RDF></metadata><defs
     id="defs25" /><rect
     ry="6.0254235"
     y="0"
     x="0"
     height="12.050847"
     width="12.152542"
     id="rect4155"
     style="opacity:1;fill:#0096b8;fill-opacity:1;stroke:none;stroke-width:1;stroke-linecap:butt;stroke-linejoin:round;stroke-miterlimit:4;stroke-dasharray:none;stroke-dashoffset:0;stroke-opacity:1" /><g
     transform="translate(0.05084746,0)"
     id="guides" /><path
     id="path4138"
     d="M 1.1427903,2.6163079 3.1004173,1.7010537 5.9224512,3.1502062 9.1512648,2.3366469 11.261434,4.2180029 11.566519,8.0824097 9.888553,10.090884 7.2444851,7.9044436 4.066519,9.5315621 0.68516308,8.0824097 2.2105868,5.6671554 Z"
     style="fill:#47331c;fill-opacity:1;fill-rule:evenodd;stroke:none;stroke-width:1px;stroke-linecap:butt;stroke-linejoin:miter;stroke-opacity:1" /><path
     id="path4138-0"
     d="M 2.2769109,3.3673254 3.8657155,2.67167 6.1560702,3.7731243 8.776566,3.154764 10.489173,4.5847225 10.736779,7.5219342 9.3749472,9.048511 7.2290291,7.386668 4.6498009,8.6233888 1.9055021,7.5219342 3.1435315,5.6861769 Z"
     style="fill:#c1a150;fill-opacity:1;fill-rule:evenodd;stroke:none;stroke-width:1px;stroke-linecap:butt;stroke-linejoin:miter;stroke-opacity:1" /><path
     id="path4138-0-2"
     d="M 4.0675881,4.112621 5.0509757,3.6688278 6.4685862,4.3715003 8.0905371,3.9770175 9.1505529,4.8892591 9.3038079,6.7630528 8.4609039,7.736932 7.1326921,6.6767596 5.5362838,7.4657254 3.8377053,6.7630528 4.6039814,5.5919317 Z"
     style="fill:#ffd0a4;fill-opacity:1;fill-rule:evenodd;stroke:none;stroke-width:1px;stroke-linecap:butt;stroke-linejoin:miter;stroke-opacity:1" /></svg>