<?xml version="1.0" encoding="UTF-8" standalone="no"?>
<svg
   xmlns:dc="http://purl.org/dc/elements/1.1/"
   xmlns:cc="http://creativecommons.org/ns#"
   xmlns:rdf="http://www.w3.org/1999/02/22-rdf-syntax-ns#"
   xmlns:svg="http://www.w3.org/2000/svg"
   xmlns="http://www.w3.org/2000/svg"
   height="12.050847"
   width="12.152542"
   id="svg2"
   xml:space="preserve"
   enable-background="new 0 0 12 12"
   viewBox="0 0 12.152542 12.050847"
   y="0px"
   x="0px"
   version="1.1"><metadata
     id="metadata27"><rdf:RDF><cc:Work
         rdf:about=""><dc:format>image/svg+xml</dc:format><dc:type
           rdf:resource="http://purl.org/dc/dcmitype/StillImage" /><dc:title></dc:title></cc:Work></rdf:RDF></metadata><defs
     id="defs25" /><rect
     ry="6.0254235"
     y="0"
     x="0"
     height="12.050847"
     width="12.152542"
     id="rect4155"
     style="opacity:1;fill:#d7d7d7;fill-opacity:1;stroke:none;stroke-width:1;stroke-linecap:butt;stroke-linejoin:round;stroke-miterlimit:4;stroke-dasharray:none;stroke-dashoffset:0;stroke-opacity:1" /><g
     transform="translate(0.05084746,0)"
     id="guides" /><path
     id="path4138"
     d="M 1.124813,2.742149 3.08244,1.8268948 5.9044739,3.2760473 9.1332875,2.462488 11.243457,4.343844 11.548542,8.2082508 9.8705757,10.216725 7.2265078,8.0302847 4.0485417,9.6574032 0.66718579,8.2082508 2.1926095,5.7929965 Z"
     style="fill:#3590ff;fill-opacity:1;fill-rule:evenodd;stroke:none;stroke-width:1px;stroke-linecap:butt;stroke-linejoin:miter;stroke-opacity:1" /><path
     id="path4138-0"
     d="M 2.2589336,3.4931665 3.8477382,2.7975111 6.1380929,3.8989654 8.7585887,3.2806051 10.471196,4.7105636 10.718802,7.6477753 9.3569699,9.1743521 7.2110518,7.5125091 4.6318236,8.7492299 1.8875248,7.6477753 3.1255542,5.812018 Z"
     style="fill:#0059c7;fill-opacity:1;fill-rule:evenodd;stroke:none;stroke-width:1px;stroke-linecap:butt;stroke-linejoin:miter;stroke-opacity:1" /><path
     id="path4138-0-2"
     d="M 4.0496108,4.2384621 5.0329984,3.7946689 6.4506089,4.4973414 8.0725598,4.1028586 9.1325756,5.0151002 9.2858306,6.8888939 8.4429266,7.8627731 7.1147148,6.8026007 5.5183065,7.5915665 3.819728,6.8888939 4.5860041,5.7177728 Z"
     style="fill:#003980;fill-opacity:1;fill-rule:evenodd;stroke:none;stroke-width:1px;stroke-linecap:butt;stroke-linejoin:miter;stroke-opacity:1" /></svg>