<?xml version="1.0" encoding="UTF-8" standalone="no"?>
<svg
   xmlns:dc="http://purl.org/dc/elements/1.1/"
   xmlns:cc="http://creativecommons.org/ns#"
   xmlns:rdf="http://www.w3.org/1999/02/22-rdf-syntax-ns#"
   xmlns:svg="http://www.w3.org/2000/svg"
   xmlns="http://www.w3.org/2000/svg"
   id="svg2"
   xml:space="preserve"
   enable-background="new 0 0 12 12"
   viewBox="0 0 12 12"
   y="0px"
   x="0px"
   version="1.1"><metadata
     id="metadata35"><rdf:RDF><cc:Work
         rdf:about=""><dc:format>image/svg+xml</dc:format><dc:type
           rdf:resource="http://purl.org/dc/dcmitype/StillImage" /><dc:title></dc:title></cc:Work></rdf:RDF></metadata><defs
     id="defs33" /><rect
     ry="1.4237288"
     y="0"
     x="0"
     height="12.101695"
     width="12.050847"
     id="rect4163"
     style="opacity:1;fill:#c05715;fill-opacity:1;stroke:none;stroke-width:1;stroke-linecap:butt;stroke-linejoin:round;stroke-miterlimit:4;stroke-dasharray:none;stroke-dashoffset:0;stroke-opacity:1" /><g
     id="guides" /><g
     id="shadows"
     transform="matrix(1.1578947,0,0,1.1578947,-0.58661659,-0.69321831)"><g
       id="g5"
       style="opacity:0.2"><polygon
         id="polygon7"
         points="10.5,7.9 8.6,7.4 8.6,7.9 10.5,8.6 " /><polygon
         id="polygon9"
         points="1.5,6 6,7.3 6,6.6 1.5,5.4 " /><polygon
         id="polygon11"
         points="4.1,2.7 2.1,2.1 3.3,4.6 4.1,4.7 4.5,4.9 9.8,6.5 10.1,5.6 10.5,4.5 4.7,2.9 6,1.5 5.4,1.5 " /><polygon
         id="polygon13"
         points="1.5,7.3 10.5,9.9 10.5,10.5 1.5,10.5 " /><rect
         id="rect15"
         height="1.3"
         width="1.3"
         y="6.5999999"
         x="6.5999999" /></g></g><g
     id="icons"
     transform="matrix(1.1578947,0,0,1.1578947,-0.58661659,-0.69321831)"><g
       id="g18"><polygon
         id="polygon20"
         points="10,7.4 8.1,6.9 8.1,7.4 10,8.1 "
         style="fill:#ffffff" /><polygon
         id="polygon22"
         points="1,5.5 5.5,6.8 5.5,6.1 1,4.9 "
         style="fill:#ffffff" /><polygon
         id="polygon24"
         points="3.6,2.2 1.6,1.6 2.8,4.1 3.6,4.2 4,4.4 9.3,6 9.6,5.1 10,4 4.2,2.4 5.5,1 4.9,1 "
         style="fill:#ffffff" /><polygon
         id="polygon26"
         points="1,6.8 10,9.4 10,10 1,10 "
         style="fill:#ffffff" /><rect
         id="rect28"
         height="1.3"
         width="1.3"
         y="6.0999999"
         x="6.0999999"
         style="fill:#ffffff" /></g></g></svg>