<?xml version="1.0" encoding="UTF-8" standalone="no"?>
<!-- Generator: Adobe Illustrator 18.1.1, SVG Export Plug-In . SVG Version: 6.00 Build 0)  -->

<svg
   xmlns:dc="http://purl.org/dc/elements/1.1/"
   xmlns:cc="http://creativecommons.org/ns#"
   xmlns:rdf="http://www.w3.org/1999/02/22-rdf-syntax-ns#"
   xmlns:svg="http://www.w3.org/2000/svg"
   xmlns="http://www.w3.org/2000/svg"
   xmlns:sodipodi="http://sodipodi.sourceforge.net/DTD/sodipodi-0.dtd"
   xmlns:inkscape="http://www.inkscape.org/namespaces/inkscape"
   version="1.1"
   x="0px"
   y="0px"
   viewBox="0 0 12 12"
   enable-background="new 0 0 12 12"
   xml:space="preserve"
   id="svg2"
   inkscape:version="0.91 r13725"
   sodipodi:docname="ramp.svg"><metadata
     id="metadata35"><rdf:RDF><cc:Work
         rdf:about=""><dc:format>image/svg+xml</dc:format><dc:type
           rdf:resource="http://purl.org/dc/dcmitype/StillImage" /><dc:title></dc:title></cc:Work></rdf:RDF></metadata><defs
     id="defs33" /><sodipodi:namedview
     pagecolor="#ffffff"
     bordercolor="#666666"
     borderopacity="1"
     objecttolerance="10"
     gridtolerance="10"
     guidetolerance="10"
     inkscape:pageopacity="0"
     inkscape:pageshadow="2"
     inkscape:window-width="1680"
     inkscape:window-height="1023"
     id="namedview31"
     showgrid="false"
     inkscape:zoom="55.625733"
     inkscape:cx="5.2275809"
     inkscape:cy="5.170361"
     inkscape:window-x="1671"
     inkscape:window-y="-9"
     inkscape:window-maximized="1"
     inkscape:current-layer="svg2"
     showguides="true"
     inkscape:guide-bbox="true"><sodipodi:guide
       position="0.98875101,9.635828"
       orientation="1,0"
       id="guide4201" /><sodipodi:guide
       position="10.984125,6.669575"
       orientation="1,0"
       id="guide4203" /></sodipodi:namedview><rect
     style="opacity:1;fill:#c05715;fill-opacity:1;stroke:none;stroke-width:1;stroke-linecap:butt;stroke-linejoin:round;stroke-miterlimit:4;stroke-dasharray:none;stroke-dashoffset:0;stroke-opacity:1"
     id="rect4163"
     width="12.050847"
     height="12.101695"
     x="0"
     y="0"
     ry="1.4237288" /><g
     id="guides" /><g
     transform="matrix(1.1578947,0,0,1.1578947,-0.58661659,-0.69321831)"
     id="shadows"><g
       style="opacity:0.2"
       id="g5"><polygon
         points="10.5,7.9 8.6,7.4 8.6,7.9 10.5,8.6 "
         id="polygon7" /><polygon
         points="1.5,6 6,7.3 6,6.6 1.5,5.4 "
         id="polygon9" /><polygon
         points="4.1,2.7 2.1,2.1 3.3,4.6 4.1,4.7 4.5,4.9 9.8,6.5 10.1,5.6 10.5,4.5 4.7,2.9 6,1.5 5.4,1.5 "
         id="polygon11" /><polygon
         points="1.5,7.3 10.5,9.9 10.5,10.5 1.5,10.5 "
         id="polygon13" /><rect
         x="6.5999999"
         y="6.5999999"
         width="1.3"
         height="1.3"
         id="rect15" /></g></g><g
     transform="matrix(1.1578947,0,0,1.1578947,-0.58661659,-0.69321831)"
     id="icons"><g
       id="g18"><polygon
         style="fill:#ffffff"
         points="10,7.4 8.1,6.9 8.1,7.4 10,8.1 "
         id="polygon20" /><polygon
         style="fill:#ffffff"
         points="1,5.5 5.5,6.8 5.5,6.1 1,4.9 "
         id="polygon22" /><polygon
         style="fill:#ffffff"
         points="3.6,2.2 1.6,1.6 2.8,4.1 3.6,4.2 4,4.4 9.3,6 9.6,5.1 10,4 4.2,2.4 5.5,1 4.9,1 "
         id="polygon24" /><polygon
         style="fill:#ffffff"
         points="1,6.8 10,9.4 10,10 1,10 "
         id="polygon26" /><rect
         style="fill:#ffffff"
         x="6.0999999"
         y="6.0999999"
         width="1.3"
         height="1.3"
         id="rect28" /></g></g></svg>